# AST/ASF file generated using VICON BodyLanguage
# -----------------------------------------------
:version 1.10
:name VICON
:units
  mass 1.0
  length 0.45
  angle deg
:documentation
   .ast/.asf automatically generated from VICON data using
   VICON BodyBuilder and BodyLanguage model FoxedUp or BRILLIANT.MOD
:root
   order TX TY TZ RX RY RZ
   axis XYZ
   position 0 0 0  
   orientation 0 0 0 
:bonedata
  begin
     id 1 
     name lhipjoint
     direction 0.584852 -0.759097 0.285867 
     length 2.43633 
     axis 0 0 0  XYZ
  end
  begin
     id 2 
     name lfemur
     direction 0.34202 -0.939693 0  
     length 7.14704  
     axis 0 0 20  XYZ
    dof rx ry rz
    limits (-160.0 20.0)
           (-70.0 70.0)
           (-60.0 70.0)
  end
  begin
     id 3 
     name ltibia
     direction 0.342022 -0.939692 0   
     length 7.68483   
     axis 0 0 20   XYZ
    dof rx
    limits (-10.0 170.0)
  end
  begin
     id 4 
     name lfoot
     direction 0.0999605 -0.274639 0.956337   
     length 2.40452   
     axis -90 7.62852e-016 20   XYZ
    dof rx rz
    limits (-45.0 90.0)
           (-70.0 20.0)
  end
  begin
     id 5 
     name ltoes
     direction 1.53468e-011 -4.21881e-011 1   
     length 1.19837   
     axis -90 7.62852e-016 20   XYZ
    dof rx
    limits (-90.0 20.0)
  end
  begin
     id 6 
     name rhipjoint
     direction -0.569886 -0.769002 0.289597   
     length 2.40495  
     axis 0 0 0  XYZ 
  end
  begin
     id 7 
     name rfemur
     direction -0.34202 -0.939693 0   
     length 7.45086   
     axis 0 0 -20   XYZ
    dof rx ry rz
    limits (-160.0 20.0)
           (-70.0 70.0)
           (-70.0 60.0)
  end
  begin
     id 8 
     name rtibia
     direction -0.34202 -0.939693 0   
     length 7.76831   
     axis 0 0 -20   XYZ
    dof rx
    limits (-10.0 170.0)
 end
 begin
     id 9 
     name rfoot
     direction -0.0798572 -0.219406 0.97236   
     length 2.35911  
     axis -90 -7.62852e-016 -20   XYZ
    dof rx rz
    limits (-45.0 90.0)
           (-20.0 70.0)
  end
  begin
     id 10 
     name rtoes
     direction -1.53469e-011 -4.21728e-011 1   
     length 1.18261   
     axis -90 -7.62852e-016 -20   XYZ
    dof rx
    limits (-90.0 20.0)
  end
  begin
     id 11 
     name lowerback
     direction 0.0242088 0.999437 0.0232389   
     length 2.1561   
     axis 0 0 0   XYZ
    dof rx ry rz
    limits (-20.0 45.0)
           (-30.0 30.0)
           (-30.0 30.0)
  end
  begin
     id 12 
     name upperback
     direction -0.0356893 0.999013 -0.0264323   
     length 2.14431   
     axis 0 0 0   XYZ
    dof rx ry rz
    limits (-20.0 45.0)
           (-30.0 30.0)
           (-30.0 30.0)
  end
  begin
     id 13 
     name thorax
     direction -0.0472163 0.998194 -0.0371284   
     length 2.16169   
     axis 0 0 0   XYZ
    dof rx ry rz
    limits (-20.0 45.0)
           (-30.0 30.0)
           (-30.0 30.0)
  end
  begin
     id 14 
     name lowerneck
     direction 0.00863244 0.999921 0.00911972   
     length 1.58651   
     axis 0 0 0   XYZ
    dof rx ry rz
    limits (-20.0 45.0)
           (-30.0 30.0)
           (-30.0 30.0)
  end
  begin
     id 15 
     name upperneck
     direction 0.149523 0.979068 -0.138086   
     length 1.57486   
     axis 0 0 0   XYZ
    dof rx ry rz
    limits (-20.0 45.0)
           (-30.0 30.0)
           (-30.0 30.0)
  end
  begin
     id 16
     name head
     direction 0.0445219 0.997708 -0.0509576  
     length 1.6019  
     axis 0 0 0   XYZ
    dof rx ry rz
    limits (-20.0 45.0)
           (-30.0 30.0)
           (-30.0 30.0)
  end
  begin
     id 17 
     name lclavicle
     direction 0.911271 0.381667 -0.154644  
     length 3.80848  
     axis 0 0 0   XYZ
    dof ry rz
    limits (-20.0 10.0)
           (0.0 20.0)
  end
  begin
     id 18 
     name lhumerus
     direction 1 -4.49003e-011 2.1308e-027   
     length 5.19069   
     axis 180 -30 -90   XYZ
    dof rx ry rz
    limits (-60.0 90.0)
           (-90.0 90.0)
           (-90.0 90.0)
  end
  begin
     id 19
     name lradius
     direction 1 -4.48914e-011 4.01554e-027   
     length 3.30016   
     axis 180 -30 -90   XYZ
    dof rx
    limits (-10.0 170.0)
  end
  begin
     id 20
     name lwrist
     direction 1 -4.49003e-011 1.1934e-026   
     length 1.65008   
     axis -8.46377e-015 90 90   XYZ
    dof ry
    limits (-180.0 0.0)
 end
  begin
     id 21 
     name lhand
     direction 1 -4.49034e-011 2.38659e-026   
     length 0.707698   
     axis -1.52313e-014 90 90   XYZ
    dof rx rz
    limits (-90.0 90.0)
           (-45.0 45.0)
  end
  begin
     id 22 
     name lfingers
     direction 1 -4.48691e-011 4.77775e-026   
     length 0.570564   
     axis -3.04623e-014 90 90   XYZ
    dof rx
    limits (0.0 90.0)
  end
  begin
     id 23
     name lthumb
     direction 0.707107 -6.34832e-011 0.707107   
     length 0.819219   
     axis -90 45 -1.62303e-014   XYZ
    dof rx rz
    limits (-45.0 45.0)
           (-45.0 45.0)
  end
  begin
     id 24 
     name rclavicle
     direction -0.815579 0.573708 -0.0754329   
     length 3.54371  
     axis 0 0 0   XYZ 
    dof ry rz
    limits (-10.0 20.0)
           (-20.0 0.0)
  end
  begin
     id 25 
     name rhumerus
     direction -1 -4.48956e-011 3.05351e-028  
     length 5.23924   
     axis 180 30 90   XYZ
    dof rx ry rz
    limits (-90.0 60.0)
           (-90.0 90.0)
           (-90.0 90.0)
  end
  begin
     id 26 
     name rradius
     direction -1 -4.49013e-011 3.53849e-027   
     length 3.32953   
     axis 180 30 90   XYZ
    dof rx
    limits (-10.0 170.0)
  end
  begin
     id 27 
     name rwrist
     direction -1 -4.48901e-011 1.19374e-026   
     length 1.66477   
     axis -8.46377e-015 -90 -90   XYZ
    dof ry
    limits (-180.0 0.0)
  end
  begin
     id 28
     name rhand
     direction -1 -4.48877e-011 2.38764e-026   
     length 0.607414   
     axis -1.52313e-014 -90 -90   XYZ
    dof rx rz
    limits (-90.0 90.0)
           (-45.0 45.0)
  end
  begin
     id 29
     name rfingers
     direction -1 -4.48882e-011 4.77521e-026   
     length 0.489712   
     axis -3.04623e-014 -90 -90   XYZ
    dof rx
    limits (0.0 90.0)
  end
  begin
     id 30
     name rthumb
     direction -0.707107 -6.34974e-011 0.707107   
     length 0.703132   
     axis -90 -45 1.62303e-014   XYZ
    dof rx rz
    limits (-45.0 45.0)
           (-45.0 45.0)
  end
:hierarchy
  begin
    root lhipjoint rhipjoint lowerback
    lhipjoint lfemur
    lfemur ltibia
    ltibia lfoot
    lfoot ltoes
    rhipjoint rfemur
    rfemur rtibia
    rtibia rfoot
    rfoot rtoes
    lowerback upperback
    upperback thorax
    thorax lowerneck lclavicle rclavicle
    lowerneck upperneck
    upperneck head
    lclavicle lhumerus
    lhumerus lradius
    lradius lwrist
    lwrist lhand lthumb
    lhand lfingers
    rclavicle rhumerus
    rhumerus rradius
    rradius rwrist
    rwrist rhand rthumb
    rhand rfingers
  end

#!OML:ASF E:\VariousWalksJay\Project 1\Capture day 1\Session 1\Actor2.ASF
:FULLY-SPECIFIED
:DEGREES
644
root 7.64373 16.4804 20.7994 -1.50371 26.4735 -4.35659
lowerback 0.559745 -1.29215 7.05598
upperback 1.22565 -1.71957 -0.506789
thorax 0.730438 -0.798842 -4.47982
lowerneck -5.08433 -5.19678 -4.00864
upperneck 3.26016 -7.2052 11.1651
head 2.36103 -3.33813 3.72815
rclavicle -6.19711e-014 1.66979e-014
rhumerus -29.5976 32.4769 -84.2593
rradius 63.6547
rwrist 2.41552
rhand -3.56979 -5.95808
rfingers 7.12502
rthumb 22.167 -34.7072
lclavicle -6.19711e-014 1.66979e-014
lhumerus -42.2253 -41.7021 84.5681
lradius 56.7447
lwrist 18.2827
lhand -10.0657 -7.14009
lfingers 7.12502
lthumb 15.9204 22.2255
rfemur -25.7631 -2.37587 25.7121
rtibia 48.0582
rfoot -21.5547 -3.73504
rtoes 3.59143
lfemur -23.6 9.6904 -10.416
ltibia 45.6427
lfoot -19.7862 -3.00622
ltoes -10.5507
645
root 7.6693 16.4851 20.845 -1.46825 26.6704 -4.51646
lowerback 0.48956 -1.35274 7.12872
upperback 1.22856 -1.80623 -0.468031
thorax 0.760874 -0.840486 -4.48168
lowerneck -5.04558 -5.21702 -3.98782
upperneck 3.24824 -7.23397 11.177
head 2.35306 -3.35336 3.72804
rclavicle 8.02593e-015 -7.55382e-015
rhumerus -29.6697 32.8093 -84.2454
rradius 63.7439
rwrist 2.14251
rhand -3.43067 -6.03018
rfingers 7.12502
rthumb 22.3006 -34.7633
lclavicle 8.02593e-015 -7.55382e-015
lhumerus -42.009 -41.6985 84.4792
lradius 56.9615
lwrist 18.3798
lhand -10.1976 -7.16307
lfingers 7.12502
lthumb 15.7933 22.2127
rfemur -25.632 -2.41765 25.8408
rtibia 47.9795
rfoot -21.6705 -3.81517
rtoes 3.64209
lfemur -23.5431 9.59774 -10.2802
ltibia 45.5823
lfoot -19.824 -3.09621
ltoes -10.0656
646
root 7.69453 16.4895 20.8892 -1.41952 26.8388 -4.64828
lowerback 0.42741 -1.40152 7.18405
upperback 1.23251 -1.87662 -0.437744
thorax 0.790138 -0.874107 -4.48259
lowerneck -5.01685 -5.23742 -3.97149
upperneck 3.23956 -7.2631 11.1944
head 2.34813 -3.36827 3.73003
rclavicle 1.23495e-014 -8.74653e-015
rhumerus -29.7642 33.0804 -84.2379
rradius 63.8587
rwrist 1.84327
rhand -3.29229 -6.09934
rfingers 7.12502
rthumb 22.4334 -34.8165
lclavicle 1.23495e-014 -8.74653e-015
lhumerus -41.797 -41.6714 84.3924
lradius 57.2181
lwrist 18.4054
lhand -10.3734 -7.2102
lfingers 7.12502
lthumb 15.624 22.1788
rfemur -25.5144 -2.43932 25.9467
rtibia 47.9105
rfoot -21.7901 -3.8944
rtoes 3.72366
lfemur -23.485 9.48893 -10.1723
ltibia 45.5268
lfoot -19.8759 -3.14777
ltoes -9.5913
647
root 7.71956 16.4936 20.932 -1.35488 26.9685 -4.74726
lowerback 0.370088 -1.43572 7.21878
upperback 1.24162 -1.92738 -0.416845
thorax 0.824842 -0.897704 -4.48183
lowerneck -5.00721 -5.25797 -3.95815
upperneck 3.23403 -7.29259 11.218
head 2.34767 -3.38254 3.73381
rclavicle 8.07563e-015 2.78299e-015
rhumerus -29.8742 33.2849 -84.2315
rradius 64.0017
rwrist 1.53915
rhand -3.16524 -6.16846
rfingers 7.12502
rthumb 22.5554 -34.8709
lclavicle 8.07563e-015 2.78299e-015
lhumerus -41.5743 -41.6222 84.2979
lradius 57.5043
lwrist 18.3682
lhand -10.5673 -7.27934
lfingers 7.12502
lthumb 15.4373 22.1242
rfemur -25.4095 -2.43427 26.0249
rtibia 47.8515
rfoot -21.9134 -3.96967
rtoes 3.82983
lfemur -23.4165 9.37074 -10.0963
ltibia 45.4658
lfoot -19.9443 -3.15424
ltoes -9.16394
648
root 7.74458 16.4976 20.9735 -1.27071 27.0558 -4.80794
lowerback 0.316188 -1.45263 7.23184
upperback 1.2546 -1.9549 -0.408564
thorax 0.864873 -0.909525 -4.48218
lowerneck -5.01465 -5.27859 -3.95205
upperneck 3.23032 -7.32243 11.2564
head 2.35148 -3.39606 3.74276
rclavicle 1.22004e-014 1.63003e-014
rhumerus -29.9973 33.4128 -84.2255
rradius 64.1654
rwrist 1.25871
rhand -3.02658 -6.23021
rfingers 7.12502
rthumb 22.6885 -34.9164
lclavicle 1.22004e-014 1.63003e-014
lhumerus -41.3417 -41.5588 84.1972
lradius 57.8106
lwrist 18.2912
lhand -10.7467 -7.34602
lfingers 7.12502
lthumb 15.2645 22.0707
rfemur -25.3165 -2.40484 26.069
rtibia 47.8024
rfoot -22.0402 -4.03584
rtoes 3.93584
lfemur -23.3328 9.25033 -10.0576
ltibia 45.394
lfoot -20.0317 -3.11914
ltoes -8.79042
649
root 7.76971 16.5016 21.0139 -1.16847 27.0986 -4.83639
lowerback 0.266501 -1.45115 7.22988
upperback 1.26878 -1.95752 -0.411295
thorax 0.907111 -0.908889 -4.4856
lowerneck -5.03668 -5.30324 -3.96016
upperneck 3.22688 -7.35766 11.314
head 2.35952 -3.41142 3.75916
rclavicle 3.19049e-014 1.11319e-014
rhumerus -30.1316 33.4724 -84.2193
rradius 64.342
rwrist 1.00669
rhand -2.88337 -6.28869
rfingers 7.12502
rthumb 22.8259 -34.958
lclavicle 3.19049e-014 1.11319e-014
lhumerus -41.1022 -41.486 84.096
lradius 58.1248
lwrist 18.2039
lhand -10.9016 -7.41138
lfingers 7.12502
lthumb 15.1153 22.0167
rfemur -25.2349 -2.35317 26.0839
rtibia 47.761
rfoot -22.1654 -4.08959
rtoes 4.01906
lfemur -23.235 9.13381 -10.0499
ltibia 45.3125
lfoot -20.1366 -3.04728
ltoes -8.47732
650
root 7.79498 16.5056 21.0529 -1.05013 27.1023 -4.83657
lowerback 0.221474 -1.43414 7.21601
upperback 1.28348 -1.93897 -0.423597
thorax 0.950079 -0.89771 -4.49223
lowerneck -5.06581 -5.32829 -3.96945
upperneck 3.21577 -7.39298 11.3801
head 2.36689 -3.4266 3.77816
rclavicle 4.98453e-014 1.19271e-015
rhumerus -30.276 33.4668 -84.2148
rradius 64.5229
rwrist 0.801253
rhand -2.73273 -6.33527
rfingers 7.12502
rthumb 22.9704 -34.9867
lclavicle 4.98453e-014 1.19271e-015
lhumerus -40.8616 -41.3973 83.9963
lradius 58.4442
lwrist 18.1255
lhand -11.0077 -7.44715
lfingers 7.12502
lthumb 15.0131 21.9886
rfemur -25.164 -2.28732 26.0718
rtibia 47.7262
rfoot -22.2866 -4.12992
rtoes 4.05094
lfemur -23.1275 9.02806 -10.0702
ltibia 45.2246
lfoot -20.2522 -2.94822
ltoes -8.22631
651
root 7.82028 16.5096 21.0909 -0.925233 27.0696 -4.81916
lowerback 0.176777 -1.40557 7.19233
upperback 1.30045 -1.90497 -0.441613
thorax 0.997325 -0.878662 -4.49933
lowerneck -5.08455 -5.3516 -3.97233
upperneck 3.18549 -7.42468 11.4454
head 2.36636 -3.44081 3.79657
rclavicle 4.07757e-014 -9.54166e-015
rhumerus -30.4248 33.4148 -84.2167
rradius 64.6988
rwrist 0.646447
rhand -2.57964 -6.37316
rfingers 7.12502
rthumb 23.1173 -35.0063
lclavicle 4.07757e-014 -9.54166e-015
lhumerus -40.6239 -41.2963 83.901
lradius 58.7584
lwrist 18.0835
lhand -11.0919 -7.47689
lfingers 7.12502
lthumb 14.932 21.9649
rfemur -25.0966 -2.21177 26.0431
rtibia 47.6962
rfoot -22.4013 -4.1542
rtoes 4.02921
lfemur -23.0094 8.94141 -10.1062
ltibia 45.1351
lfoot -20.3741 -2.83295
ltoes -8.03928
652
root 7.84566 16.5136 21.1276 -0.792342 27.0115 -4.78515
lowerback 0.139146 -1.36929 7.16414
upperback 1.31705 -1.86001 -0.464588
thorax 1.04162 -0.854292 -4.5088
lowerneck -5.10462 -5.37193 -3.97159
upperneck 3.14209 -7.45114 11.5075
head 2.36151 -3.45283 3.81379
rclavicle 4.1546e-014 -1.70955e-014
rhumerus -30.5753 33.3297 -84.2243
rradius 64.8613
rwrist 0.533825
rhand -2.44601 -6.40381
rfingers 7.12502
rthumb 23.2455 -35.0208
lclavicle 4.1546e-014 -1.70955e-014
lhumerus -40.3949 -41.1875 83.8191
lradius 59.0587
lwrist 18.0712
lhand -11.1633 -7.49447
lfingers 7.12502
lthumb 14.8632 21.9524
rfemur -25.0366 -2.14526 25.9964
rtibia 47.671
rfoot -22.5064 -4.15424
rtoes 3.94761
lfemur -22.8906 8.87466 -10.1599
ltibia 45.0483
lfoot -20.4969 -2.70949
ltoes -7.90477
653
root 7.87091 16.5175 21.1632 -0.659617 26.9329 -4.74398
lowerback 0.109723 -1.32864 7.13243
upperback 1.33242 -1.80842 -0.487777
thorax 1.08096 -0.826867 -4.51619
lowerneck -5.10884 -5.38495 -3.9642
upperneck 3.07668 -7.46582 11.5617
head 2.34604 -3.46034 3.82879
rclavicle -4.50744e-014 -5.96354e-015
rhumerus -30.7313 33.2288 -84.241
rradius 65.0061
rwrist 0.459333
rhand -2.33908 -6.4261
rfingers 7.12502
rthumb 23.3481 -35.0301
lclavicle -4.50744e-014 -5.96354e-015
lhumerus -40.1828 -41.0737 83.7583
lradius 59.3381
lwrist 18.0824
lhand -11.2364 -7.52142
lfingers 7.12502
lthumb 14.7927 21.9306
rfemur -24.9796 -2.09107 25.9415
rtibia 47.6498
rfoot -22.5995 -4.12915
rtoes 3.83052
lfemur -22.7717 8.83334 -10.2205
ltibia 44.968
lfoot -20.615 -2.58711
ltoes -7.82202
654
root 7.89587 16.5213 21.1976 -0.526712 26.8411 -4.69432
lowerback 0.0903279 -1.28601 7.09647
upperback 1.34598 -1.75325 -0.51222
thorax 1.11332 -0.798003 -4.52213
lowerneck -5.10561 -5.38979 -3.95033
upperneck 2.99831 -7.4682 11.6071
head 2.32394 -3.46257 3.84106
rclavicle 3.57812e-014 2.38542e-015
rhumerus -30.8874 33.1288 -84.2638
rradius 65.1328
rwrist 0.408753
rhand -2.26134 -6.44395
rfingers 7.12502
rthumb 23.4227 -35.0384
lclavicle 3.57812e-014 2.38542e-015
lhumerus -39.9869 -40.963 83.7204
lradius 59.5854
lwrist 18.0994
lhand -11.3276 -7.56268
lfingers 7.12502
lthumb 14.7049 21.8958
rfemur -24.927 -2.05746 25.8766
rtibia 47.6331
rfoot -22.6798 -4.07718
rtoes 3.68149
lfemur -22.6568 8.81342 -10.29
ltibia 44.8965
lfoot -20.7263 -2.46927
ltoes -7.78101
655
root 7.92041 16.5249 21.2306 -0.397652 26.7412 -4.64347
lowerback 0.0816616 -1.24429 7.06052
upperback 1.35959 -1.69842 -0.534057
thorax 1.13972 -0.769539 -4.52503
lowerneck -5.10397 -5.38679 -3.92949
upperneck 2.91264 -7.45891 11.6376
head 2.29815 -3.45955 3.84838
rclavicle 5.58088e-014 -5.56597e-015
rhumerus -31.0324 33.0395 -84.2862
rradius 65.236
rwrist 0.377795
rhand -2.21632 -6.46052
rfingers 7.12502
rthumb 23.4659 -35.0495
lclavicle 5.58088e-014 -5.56597e-015
lhumerus -39.8051 -40.8548 83.7037
lradius 59.8022
lwrist 18.1057
lhand -11.4346 -7.61818
lfingers 7.12502
lthumb 14.6018 21.8478
rfemur -24.8785 -2.04723 25.8091
rtibia 47.6203
rfoot -22.7484 -3.9987
rtoes 3.52986
lfemur -22.5478 8.81023 -10.3609
ltibia 44.8342
lfoot -20.8297 -2.35802
ltoes -7.77827
656
root 7.94446 16.5283 21.2627 -0.274432 26.6379 -4.59637
lowerback 0.0833062 -1.20381 7.02854
upperback 1.37141 -1.64439 -0.551842
thorax 1.15836 -0.74179 -4.52561
lowerneck -5.10978 -5.37923 -3.90784
upperneck 2.83113 -7.4431 11.6545
head 2.2737 -3.45331 3.8515
rclavicle -1.24986e-014 -6.75868e-015
rhumerus -31.1668 32.9625 -84.3053
rradius 65.3176
rwrist 0.36101
rhand -2.18914 -6.47703
rfingers 7.12502
rthumb 23.492 -35.0627
lclavicle -1.24986e-014 -6.75868e-015
lhumerus -39.6428 -40.7561 83.7132
lradius 59.9848
lwrist 18.0849
lhand -11.5536 -7.68631
lfingers 7.12502
lthumb 14.4872 21.7879
rfemur -24.8336 -2.06134 25.7442
rtibia 47.6107
rfoot -22.8059 -3.89593
rtoes 3.38571
lfemur -22.4455 8.81844 -10.428
ltibia 44.7815
lfoot -20.9263 -2.25679
ltoes -7.7842
657
root 7.96813 16.5317 21.2937 -0.149123 26.5356 -4.54376
lowerback 0.0868417 -1.16523 6.99281
upperback 1.382 -1.59268 -0.568506
thorax 1.17444 -0.715374 -4.52283
lowerneck -5.12384 -5.36928 -3.88698
upperneck 2.75687 -7.42411 11.6615
head 2.25212 -3.4453 3.85166
rclavicle -5.34979e-014 3.57812e-015
rhumerus -31.2879 32.9034 -84.32
rradius 65.3813
rwrist 0.351337
rhand -2.17457 -6.49454
rfingers 7.12502
rthumb 23.506 -35.0784
lclavicle -5.34979e-014 3.57812e-015
lhumerus -39.4926 -40.6727 83.7441
lradius 60.1288
lwrist 18.0371
lhand -11.6848 -7.77307
lfingers 7.12502
lthumb 14.3607 21.7102
rfemur -24.7957 -2.10137 25.6721
rtibia 47.6033
rfoot -22.8541 -3.77055
rtoes 3.25863
lfemur -22.3535 8.82861 -10.5025
ltibia 44.7374
lfoot -21.0187 -2.15927
ltoes -7.80071
